<svg width="24" height="25" viewBox="0 0 24 25" fill="none" xmlns="http://www.w3.org/2000/svg">
<path fill-rule="evenodd" clip-rule="evenodd" d="M19 5.5V19.5H5V5.5H19ZM19 3.5H5C3.89 3.5 3 4.4 3 5.5V19.5C3 20.6 3.89 21.5 5 21.5H19C20.1 21.5 21 20.6 21 19.5V5.5C21 4.4 20.1 3.5 19 3.5ZM12 12.5C10.35 12.5 9 11.15 9 9.5C9 7.85 10.35 6.5 12 6.5C13.65 6.5 15 7.85 15 9.5C15 11.15 13.65 12.5 12 12.5ZM12 8.5C11.45 8.5 11 8.95 11 9.5C11 10.05 11.45 10.5 12 10.5C12.55 10.5 13 10.05 13 9.5C13 8.95 12.55 8.5 12 8.5ZM18 18.5H6V16.97C6 14.47 9.97 13.39 12 13.39C14.03 13.39 18 14.47 18 16.97V18.5ZM8.31 16.5H15.69C15 15.94 13.31 15.38 12 15.38C10.69 15.38 8.99 15.94 8.31 16.5Z" fill="#9F9E9E"/>
</svg>
