<svg width="83" height="83" viewBox="0 0 83 83" fill="none" xmlns="http://www.w3.org/2000/svg">
<rect width="83" height="83" rx="41.5" fill="#F3F3F3"/>
<path fill-rule="evenodd" clip-rule="evenodd" d="M41.5001 34.25C45.2443 34.25 48.2795 37.2852 48.2795 41.0294C48.2795 42.8586 47.3213 44.7958 45.8233 46.2938C44.5288 47.5883 42.9063 48.4797 41.3089 48.698V48.613C41.3429 48.4107 41.3812 48.1717 41.3929 47.9724C41.3991 47.8662 41.4034 47.7004 41.3637 47.535C41.3314 47.4006 41.1785 46.9397 40.6517 46.874C38.9151 46.6574 37.4277 46.0208 36.3851 45.043C35.3555 44.0773 34.7207 42.7448 34.7207 41.0294C34.7207 37.2852 37.7559 34.25 41.5001 34.25ZM39.8089 48.2612C38.0902 47.9444 36.5338 47.239 35.3589 46.137C34.0229 44.884 33.2207 43.1537 33.2207 41.0294C33.2207 36.4568 36.9275 32.75 41.5001 32.75C46.0727 32.75 49.7795 36.4568 49.7795 41.0294C49.7795 43.3586 48.5816 45.6567 46.884 47.3544C45.1863 49.0521 42.8882 50.25 40.5589 50.25C40.3338 50.25 40.1228 50.1589 39.9692 49.9991C39.8369 49.8616 39.7819 49.7099 39.7572 49.6206C39.7094 49.4477 39.7135 49.2743 39.7189 49.1719C39.7301 48.9592 39.7734 48.6985 39.8089 48.4876V48.2612ZM44.1327 39.2059C44.1327 38.7917 43.7969 38.4559 43.3827 38.4559H39.6179C39.2037 38.4559 38.8679 38.7917 38.8679 39.2059C38.8679 39.6201 39.2037 39.9559 39.6179 39.9559H43.3827C43.7969 39.9559 44.1327 39.6201 44.1327 39.2059ZM44.3238 41.75C44.738 41.75 45.0738 42.0858 45.0738 42.5C45.0738 42.9142 44.738 43.25 44.3238 43.25L37.7356 43.25C37.3214 43.25 36.9856 42.9142 36.9856 42.5C36.9856 42.0858 37.3214 41.75 37.7356 41.75L44.3238 41.75Z" fill="#9F9E9E"/>
</svg>
