<svg width="18" height="19" viewBox="0 0 18 19" fill="none" xmlns="http://www.w3.org/2000/svg">
<path d="M18 2.5V16.5C18 17.6046 17.1046 18.5 16 18.5H12.25C11.9739 18.5 11.75 18.2761 11.75 18V12H14.09C14.3276 12 14.5325 11.8328 14.58 11.6L14.94 9.8C14.9549 9.72729 14.9366 9.65173 14.8903 9.59378C14.8439 9.53582 14.7742 9.50147 14.7 9.5H11.75V6.25C11.75 6.11193 11.8619 6 12 6H14.5C14.7761 6 15 5.77614 15 5.5V4C15 3.72386 14.7761 3.5 14.5 3.5H12C10.3431 3.5 9 4.84315 9 6.5V9.5H7.77C7.49386 9.5 7.27 9.72386 7.27 10V11.5C7.27 11.7761 7.49386 12 7.77 12H9V18C9 18.2761 8.77614 18.5 8.5 18.5H2C0.89543 18.5 0 17.6046 0 16.5V2.5C0 1.39543 0.89543 0.5 2 0.5H16C17.1046 0.5 18 1.39543 18 2.5Z" fill="#9F9E9E"/>
</svg>
