<svg width="25" height="24" viewBox="0 0 25 24" fill="none" xmlns="http://www.w3.org/2000/svg">
<g clip-path="url(#clip0_239_1474)">
<path d="M16.3184 3H8.31836C5.55694 3 3.31836 5.23858 3.31836 8V16C3.31836 18.7614 5.55694 21 8.31836 21H16.3184C19.0798 21 21.3184 18.7614 21.3184 16V8C21.3184 5.23858 19.0798 3 16.3184 3ZM19.5684 16C19.5629 17.7926 18.111 19.2445 16.3184 19.25H8.31836C6.52571 19.2445 5.07385 17.7926 5.06836 16V8C5.07385 6.20735 6.52571 4.75549 8.31836 4.75H16.3184C18.111 4.75549 19.5629 6.20735 19.5684 8V16ZM18.0684 7.25C18.0684 7.80228 17.6206 8.25 17.0684 8.25C16.5161 8.25 16.0684 7.80228 16.0684 7.25C16.0684 6.69772 16.5161 6.25 17.0684 6.25C17.6206 6.25 18.0684 6.69772 18.0684 7.25ZM12.3184 7.5C9.83308 7.5 7.81836 9.51472 7.81836 12C7.81836 14.4853 9.83308 16.5 12.3184 16.5C14.8036 16.5 16.8184 14.4853 16.8184 12C16.821 10.8057 16.3478 9.65957 15.5033 8.81508C14.6588 7.97059 13.5126 7.49734 12.3184 7.5ZM12.3184 14.75C10.7996 14.75 9.56836 13.5188 9.56836 12C9.56836 10.4812 10.7996 9.25 12.3184 9.25C13.8371 9.25 15.0684 10.4812 15.0684 12C15.0684 13.5188 13.8371 14.75 12.3184 14.75Z" fill="#1E1E1E"/>
</g>
<defs>
<clipPath id="clip0_239_1474">
<rect width="24" height="24" fill="white" transform="translate(0.318359)"/>
</clipPath>
</defs>
</svg>
