<svg width="316" height="54" viewBox="0 0 316 54" fill="none" xmlns="http://www.w3.org/2000/svg">
<g clip-path="url(#clip0_228_1352)">
<mask id="mask0_228_1352" style="mask-type:luminance" maskUnits="userSpaceOnUse" x="0" y="0" width="256" height="54">
<path d="M255.318 0H0.318359V53.3473H255.318V0Z" fill="white"/>
</mask>
<g mask="url(#mask0_228_1352)">
<path d="M4.60622 35.6876H0.318359V16.9199H5.41173L15.3384 28.3792L25.2655 16.9199H30.3589V35.6876H26.071V22.6646L15.3384 35.1162L4.60622 22.6646V35.6876Z" fill="#08457E"/>
<path d="M44.7534 28.5898H34.2549V24.0781H44.7534V28.5898Z" fill="#08457E"/>
<path d="M76.6642 29.7011C76.6642 32.8892 74.0651 35.4758 71.3627 35.6864H52.0026L48.7285 31.1749H71.3105C71.9604 31.1749 72.5061 30.6034 72.5061 29.8514C72.5061 29.1296 71.9862 28.5882 71.3627 28.5583H53.4841C50.7814 28.3477 48.6504 26.0919 48.6504 22.9038C48.6504 19.7159 50.8073 17.0689 53.5359 16.8887H71.8302L75.1045 21.4302H53.9778C53.3539 21.4602 52.8343 22.0017 52.8343 22.7533C52.8343 23.5054 53.3798 24.0168 54.0297 24.0168H71.5705C74.3772 24.0767 76.6642 26.4229 76.6642 29.7011Z" fill="#08457E"/>
<path d="M103.454 20.9503H93.9165V35.6876H89.6291V20.9503H77.1816L80.1182 16.9199H106.365L103.454 20.9503Z" fill="#08457E"/>
<path d="M141.218 26.6346H157.329C158.577 26.6346 159.59 25.4618 159.59 24.018C159.59 22.6046 158.603 21.4014 157.304 21.4014H141.218V26.6346ZM141.218 35.6876H136.956V16.9199H157.694C161.02 16.9802 163.696 20.1382 163.696 24.018C163.696 27.1761 161.955 29.8227 159.513 30.7852L163.696 35.6876H157.746L153.874 31.1461H141.218V35.6876Z" fill="#08457E"/>
<path d="M192.046 20.9503H182.508V35.6876H178.221V20.9503H165.773L168.71 16.9199H194.956L192.046 20.9503Z" fill="#08457E"/>
<path d="M202.075 20.9503V24.048H220.447V28.1084H202.075V31.6273H224.553V35.6876H197.812V16.9199H221.278L224.553 20.9503H202.075Z" fill="#08457E"/>
<path d="M232.191 26.6346H248.303C249.55 26.6346 250.564 25.4618 250.564 24.018C250.564 22.6046 249.576 21.4014 248.278 21.4014H232.191V26.6346ZM232.191 35.6876H227.93V16.9199H248.667C251.993 16.9802 254.67 20.1382 254.67 24.018C254.67 27.1761 252.929 29.8227 250.486 30.7852L254.67 35.6876H248.719L244.847 31.1461H232.191V35.6876Z" fill="#08457E"/>
<path d="M120.338 27.1902V39.5802H117.485V27.1902H113.505L116.208 20.9745L118.912 14.7589L121.615 20.9745L124.319 27.1902H120.338ZM121.216 0H118.912H116.607L102.506 39.5802H107.916H129.883H132.298H135.318L121.216 0Z" fill="#E52D36"/>
<path d="M141.102 51.5693H140.187L138.253 49.2434V51.5693H137.516V46.6621H138.253V48.8313L140.085 46.6621H141.034L139.008 49.0374L141.102 51.5693Z" fill="#08457E"/>
<path d="M144.24 50.8631C144.664 50.8631 145.02 50.6963 145.308 50.3624C145.596 50.029 145.74 49.6134 145.74 49.1161C145.74 48.619 145.596 48.2033 145.308 47.8699C145.02 47.5359 144.664 47.3693 144.24 47.3693C143.822 47.3693 143.468 47.5359 143.18 47.8699C142.891 48.2033 142.747 48.619 142.747 49.1161C142.747 49.6134 142.891 50.029 143.18 50.3624C143.468 50.6963 143.822 50.8631 144.24 50.8631ZM145.825 50.9512C145.389 51.4484 144.862 51.6971 144.24 51.6971C143.618 51.6971 143.091 51.4484 142.658 50.9512C142.226 50.4543 142.01 49.8423 142.01 49.1161C142.01 48.3899 142.226 47.7781 142.658 47.2812C143.091 46.7839 143.618 46.5352 144.24 46.5352C144.862 46.5352 145.389 46.7839 145.825 47.2812C146.26 47.7781 146.479 48.3899 146.479 49.1161C146.479 49.8423 146.26 50.4543 145.825 50.9512Z" fill="#08457E"/>
<path d="M152.439 46.6621V51.5693H151.718V48.0065L150.37 50.519H150.276L148.929 48.0065V51.5693H148.199V46.6621H148.987L150.32 49.145L151.65 46.6621H152.439Z" fill="#08457E"/>
<path d="M158.087 46.6621V51.5693H157.349V47.4768H155.153V51.5693H154.415V46.6621H158.087Z" fill="#08457E"/>
<path d="M163.589 46.6621V51.5693H162.852V47.4866H161.181V49.4885C161.181 50.2931 161.041 50.8548 160.762 51.1718C160.482 51.4891 160.088 51.6214 159.579 51.5693V50.7645C159.868 50.8102 160.084 50.7368 160.227 50.5434C160.372 50.3508 160.444 49.9925 160.444 49.469V46.6621H163.589Z" fill="#08457E"/>
<path d="M167.541 47.3398C167.146 47.3398 166.817 47.4691 166.558 47.7271C166.298 47.9861 166.136 48.3312 166.074 48.7629H168.906C168.845 48.2983 168.686 47.9449 168.431 47.7029C168.177 47.4607 167.88 47.3398 167.541 47.3398ZM166.074 49.5085C166.148 49.947 166.321 50.2872 166.596 50.5292C166.87 50.7714 167.208 50.8923 167.609 50.8923C168.169 50.8923 168.576 50.6537 168.83 50.1759L169.457 50.5881C169.045 51.3274 168.423 51.6972 167.593 51.6972C166.919 51.6972 166.373 51.4537 165.951 50.9662C165.53 50.4787 165.319 49.8619 165.319 49.1162C165.319 48.3768 165.526 47.7617 165.939 47.2712C166.351 46.7806 166.885 46.5352 167.541 46.5352C168.163 46.5352 168.67 46.7885 169.063 47.2955C169.457 47.8025 169.653 48.4129 169.653 49.1256C169.653 49.25 169.644 49.3778 169.628 49.5085H166.074Z" fill="#08457E"/>
<path d="M174.935 51.5693H174.02L172.086 49.2434V51.5693H171.349V46.6621H172.086V48.8313L173.918 46.6621H174.867L172.841 49.0374L174.935 51.5693Z" fill="#08457E"/>
<path d="M179.624 46.6621V47.4866H178.182V51.5693H177.445V47.4866H175.995V46.6621H179.624Z" fill="#08457E"/>
<path d="M184.101 46.6621H184.89L183.16 51.8732C182.979 52.4296 182.725 52.8531 182.396 53.1446C182.069 53.4354 181.696 53.5647 181.278 53.5321V52.737C181.797 52.7826 182.179 52.4559 182.423 51.7557L182.49 51.5791L180.649 46.6621H181.43L182.88 50.5093L184.101 46.6621Z" fill="#08457E"/>
<path d="M190.062 50.8631C190.48 50.8631 190.834 50.6963 191.122 50.3624C191.41 50.029 191.555 49.6134 191.555 49.1161C191.555 48.619 191.41 48.2033 191.122 47.8699C190.834 47.5359 190.48 47.3693 190.062 47.3693C189.638 47.3693 189.282 47.5359 188.993 47.8699C188.706 48.2033 188.561 48.619 188.561 49.1161C188.561 49.6134 188.706 50.029 188.993 50.3624C189.282 50.6963 189.638 50.8631 190.062 50.8631ZM190.062 46.5352C190.684 46.5352 191.211 46.7839 191.644 47.2812C192.076 47.7781 192.292 48.3899 192.292 49.1161C192.292 49.8423 192.076 50.4543 191.644 50.9512C191.211 51.4484 190.684 51.6971 190.062 51.6971C189.502 51.6971 189.019 51.491 188.612 51.079C188.205 50.6667 187.962 50.1466 187.883 49.5186H187.094V51.5693H186.356V46.6625H187.094V48.7039H187.883C187.962 48.0755 188.206 47.5573 188.616 47.1486C189.026 46.7398 189.508 46.5352 190.062 46.5352Z" fill="#08457E"/>
<path d="M199.788 50.7547H200.373V52.8842H199.644V51.5693H194.022V46.6621H194.76V50.7547H196.54V46.6621H197.278V50.7547H199.05V46.6621H199.788V50.7547Z" fill="#08457E"/>
<path d="M205.095 46.6621H205.689V51.5693H204.959V48.1246L202.611 51.5693H202.018V46.6621H202.746V50.1068L205.095 46.6621Z" fill="#08457E"/>
<path d="M209.641 47.3398C209.245 47.3398 208.917 47.4691 208.657 47.7271C208.397 47.9861 208.236 48.3312 208.174 48.7629H211.006C210.944 48.2983 210.785 47.9449 210.531 47.7029C210.277 47.4607 209.98 47.3398 209.641 47.3398ZM208.174 49.5085C208.247 49.947 208.421 50.2872 208.695 50.5292C208.97 50.7714 209.307 50.8923 209.709 50.8923C210.269 50.8923 210.675 50.6537 210.929 50.1759L211.557 50.5881C211.144 51.3274 210.523 51.6972 209.692 51.6972C209.019 51.6972 208.472 51.4537 208.051 50.9662C207.63 50.4787 207.419 49.8619 207.419 49.1162C207.419 48.3768 207.626 47.7617 208.037 47.2712C208.451 46.7806 208.985 46.5352 209.641 46.5352C210.263 46.5352 210.77 46.7885 211.163 47.2955C211.555 47.8025 211.752 48.4129 211.752 49.1256C211.752 49.25 211.744 49.3778 211.726 49.5085H208.174Z" fill="#08457E"/>
<path d="M224.599 50.8728C225.023 50.8728 225.379 50.7045 225.667 50.3673C225.955 50.0304 226.099 49.6134 226.099 49.1161C226.099 48.619 225.955 48.2018 225.667 47.8651C225.379 47.5281 225.023 47.3595 224.599 47.3595C224.169 47.3595 223.81 47.5281 223.522 47.8651C223.233 48.2018 223.089 48.619 223.089 49.1161C223.089 49.6134 223.233 50.0304 223.522 50.3673C223.81 50.7045 224.169 50.8728 224.599 50.8728ZM224.692 46.5352C225.286 46.5352 225.791 46.7855 226.209 47.2861C226.628 47.7863 226.837 48.3967 226.837 49.1161C226.837 49.836 226.628 50.446 226.209 50.9466C225.791 51.4472 225.286 51.6971 224.692 51.6971C223.991 51.6971 223.457 51.3734 223.089 50.7256V53.5324H222.352V46.6625H223.089V47.5068C223.457 46.8589 223.991 46.5352 224.692 46.5352Z" fill="#08457E"/>
<path d="M230.55 47.3398C230.154 47.3398 229.826 47.4691 229.566 47.7271C229.306 47.9861 229.145 48.3312 229.083 48.7629H231.915C231.853 48.2983 231.694 47.9449 231.44 47.7029C231.186 47.4607 230.889 47.3398 230.55 47.3398ZM229.083 49.5085C229.156 49.947 229.33 50.2872 229.605 50.5292C229.879 50.7714 230.216 50.8923 230.618 50.8923C231.178 50.8923 231.584 50.6537 231.839 50.1759L232.466 50.5881C232.053 51.3274 231.432 51.6972 230.601 51.6972C229.928 51.6972 229.382 51.4537 228.96 50.9662C228.539 50.4787 228.328 49.8619 228.328 49.1162C228.328 48.3768 228.535 47.7617 228.947 47.2712C229.36 46.7806 229.894 46.5352 230.55 46.5352C231.172 46.5352 231.679 46.7885 232.072 47.2955C232.465 47.8025 232.661 48.4129 232.661 49.1256C232.661 49.25 232.653 49.3778 232.636 49.5085H229.083Z" fill="#08457E"/>
<path d="M238.597 46.6621V51.5693H237.876V48.0065L236.528 50.519H236.435L235.087 48.0065V51.5693H234.357V46.6621H235.145L236.477 49.145L237.808 46.6621H238.597Z" fill="#08457E"/>
<path d="M242.566 50.8631C242.99 50.8631 243.346 50.6963 243.635 50.3624C243.922 50.029 244.067 49.6134 244.067 49.1161C244.067 48.619 243.922 48.2033 243.635 47.8699C243.346 47.5359 242.99 47.3693 242.566 47.3693C242.148 47.3693 241.795 47.5359 241.506 47.8699C241.218 48.2033 241.073 48.619 241.073 49.1161C241.073 49.6134 241.218 50.029 241.506 50.3624C241.795 50.6963 242.148 50.8631 242.566 50.8631ZM244.151 50.9512C243.716 51.4484 243.188 51.6971 242.566 51.6971C241.944 51.6971 241.417 51.4484 240.984 50.9512C240.552 50.4543 240.336 49.8423 240.336 49.1161C240.336 48.3899 240.552 47.7781 240.984 47.2812C241.417 46.7839 241.944 46.5352 242.566 46.5352C243.188 46.5352 243.716 46.7839 244.151 47.2812C244.587 47.7781 244.805 48.3899 244.805 49.1161C244.805 49.8423 244.587 50.4543 244.151 50.9512Z" fill="#08457E"/>
<path d="M249.459 46.6621H250.196V51.5693H249.459V49.5182H247.263V51.5693H246.525V46.6621H247.263V48.7036H249.459V46.6621Z" fill="#08457E"/>
<path d="M255.319 46.6621V47.4866H253.877V51.5693H253.139V47.4866H251.689V46.6621H255.319Z" fill="#08457E"/>
<path d="M218.822 49.3027C218.822 50.2921 218.129 51.0939 217.274 51.0939C216.419 51.0939 215.727 50.2921 215.727 49.3027C215.727 48.3136 216.419 47.5117 217.274 47.5117C218.129 47.5117 218.822 48.3136 218.822 49.3027Z" fill="#E52D36"/>
</g>
</g>
<defs>
<clipPath id="clip0_228_1352">
<rect width="255" height="53.3473" fill="white" transform="translate(0.318359)"/>
</clipPath>
</defs>
</svg>
