<svg width="83" height="83" viewBox="0 0 83 83" fill="none" xmlns="http://www.w3.org/2000/svg">
<rect width="83" height="83" rx="41.5" fill="#F3F3F3"/>
<path fill-rule="evenodd" clip-rule="evenodd" d="M36.9117 35.1182C35.7124 35.6717 35.3167 36.2852 35.3167 36.7C35.3167 37.1148 35.7124 37.7283 36.9117 38.2818C38.0472 38.8059 39.6687 39.15 41.5 39.15C43.3313 39.15 44.9528 38.8059 46.0883 38.2818C47.2876 37.7283 47.6833 37.1148 47.6833 36.7C47.6833 36.2852 47.2876 35.6717 46.0883 35.1182C44.9528 34.5941 43.3313 34.25 41.5 34.25C39.6687 34.25 38.0472 34.5941 36.9117 35.1182ZM36.2831 33.7563C37.6569 33.1222 39.5021 32.75 41.5 32.75C43.4978 32.75 45.3431 33.1222 46.7169 33.7563C48.027 34.361 49.1833 35.3475 49.1833 36.7C49.1833 36.8162 49.1748 36.9297 49.1583 37.0406C49.1747 37.1021 49.1833 37.1667 49.1833 37.2333V46.8333C49.1833 47.0736 49.0703 47.2876 48.8945 47.4248C48.4709 48.2136 47.6313 48.8217 46.7169 49.2437C45.3431 49.8778 43.4978 50.25 41.5 50.25C39.5021 50.25 37.6569 49.8778 36.2831 49.2437C35.3686 48.8216 34.5291 48.2135 34.1054 47.4248C33.9296 47.2875 33.8167 47.0736 33.8167 46.8333V46.3V41.47V37.2333C33.8167 37.1667 33.8253 37.1021 33.8416 37.0406C33.8252 36.9298 33.8167 36.8162 33.8167 36.7C33.8167 35.3475 34.973 34.361 36.2831 33.7563ZM35.3167 39.0995V41.47C35.3167 41.8848 35.7124 42.4983 36.9117 43.0518C38.0472 43.5759 39.6687 43.92 41.5 43.92C43.3313 43.92 44.9528 43.5759 46.0883 43.0518C47.2876 42.4983 47.6833 41.8848 47.6833 41.47H47.6833V39.0995C47.3829 39.3061 47.055 39.4876 46.7169 39.6437C45.3431 40.2778 43.4978 40.65 41.5 40.65C39.5021 40.65 37.6569 40.2778 36.2831 39.6437C35.9449 39.4876 35.6171 39.3062 35.3167 39.0995ZM35.3167 43.8695V46.3C35.3167 46.7148 35.7124 47.3283 36.9117 47.8818C38.0472 48.4059 39.6687 48.75 41.5 48.75C43.3313 48.75 44.9528 48.4059 46.0883 47.8818C47.2876 47.3283 47.6833 46.7148 47.6833 46.3H47.6833V43.8695C47.3829 44.0761 47.055 44.2576 46.7169 44.4137C45.3431 45.0478 43.4978 45.42 41.5 45.42C39.5021 45.42 37.6569 45.0478 36.2831 44.4137C35.9449 44.2577 35.6171 44.0762 35.3167 43.8695Z" fill="#9F9E9E"/>
</svg>
