<svg width="83" height="83" viewBox="0 0 83 83" fill="none" xmlns="http://www.w3.org/2000/svg">
<rect width="83" height="83" rx="41.5" fill="#F3F3F3"/>
<path fill-rule="evenodd" clip-rule="evenodd" d="M47.8157 47.2484C47.4706 48.9432 46.0141 50.175 44.2995 50.2467V50.25H44.1412H43.5495H39.9853H39.2353H38.8589C37.0763 50.25 35.5401 48.9951 35.1843 47.2484L33.7986 40.4446C33.6661 39.7938 33.7087 39.1196 33.9222 38.4908L35.0071 35.2946C35.5235 33.7733 36.9515 32.75 38.5581 32.75H44.442C46.0485 32.75 47.4766 33.7733 47.993 35.2946L49.0779 38.4908C49.2914 39.1196 49.334 39.7938 49.2015 40.4446L47.8157 47.2484ZM39.2353 48.75H38.8589C37.7893 48.75 36.8676 47.9971 36.6541 46.949L35.4641 41.106C36.1314 41.3914 36.9417 41.2431 37.4603 40.6611L37.7492 40.3368C37.8486 40.2253 38.023 40.2253 38.1225 40.3368L38.4114 40.6611C39.1073 41.4421 40.3285 41.4421 41.0245 40.6611L41.3134 40.3368C41.4128 40.2253 41.5873 40.2253 41.6867 40.3368L41.9756 40.6611C42.6715 41.4421 43.8927 41.4421 44.5887 40.6611L44.8776 40.3368C44.977 40.2253 45.1515 40.2253 45.2509 40.3368L45.5398 40.6611C46.0584 41.2431 46.8687 41.3914 47.536 41.106L46.3459 46.949C46.1431 47.945 45.3006 48.6744 44.2995 48.7445V46.2821C44.2995 44.8837 43.1658 43.75 41.7674 43.75C40.3689 43.75 39.2353 44.8837 39.2353 46.2821V48.75ZM40.7353 48.75H42.7995V46.2821C42.7995 45.7121 42.3374 45.25 41.7674 45.25C41.1974 45.25 40.7353 45.7121 40.7353 46.2821V48.75ZM47.033 39.6632L47.6549 38.9652L46.5726 35.7768C46.2627 34.864 45.4059 34.25 44.442 34.25H38.5581C37.5942 34.25 36.7373 34.864 36.4275 35.7768L35.3452 38.9652L35.9671 39.6632C36.0665 39.7747 36.2409 39.7747 36.3404 39.6632L36.6293 39.3389C37.3252 38.5579 38.5464 38.5579 39.2424 39.3389L39.5313 39.6632C39.6307 39.7747 39.8052 39.7747 39.9046 39.6632L40.1935 39.3389C40.8894 38.5579 42.1106 38.5579 42.8066 39.3389L43.0955 39.6632C43.1949 39.7747 43.3694 39.7747 43.4688 39.6632L43.7577 39.3389C44.4536 38.5579 45.6748 38.5579 46.3708 39.3389L46.6597 39.6632C46.7591 39.7747 46.9336 39.7747 47.033 39.6632Z" fill="#9F9E9E"/>
</svg>
