<svg width="18" height="19" viewBox="0 0 18 19" fill="none" xmlns="http://www.w3.org/2000/svg">
<g clip-path="url(#clip0_705_33758)">
<path fill-rule="evenodd" clip-rule="evenodd" d="M18 0.5H0V18.5H18V0.5ZM13.8741 6.99527C14.2986 6.7074 14.6728 6.35419 14.9825 5.94928C14.9993 5.92495 15.0043 5.89459 14.9962 5.86629C14.9881 5.83798 14.9678 5.8146 14.9405 5.80238C14.908 5.78066 14.8652 5.78066 14.8327 5.80238C14.4463 5.94318 14.044 6.03788 13.6345 6.08444C14.1021 5.80988 14.4707 5.39903 14.6889 4.90918C14.7095 4.87681 14.7095 4.83577 14.6889 4.80341C14.6559 4.78321 14.6141 4.78321 14.5811 4.80341C14.1306 5.03363 13.6482 5.19794 13.1492 5.29114C12.4172 4.54055 11.2956 4.29774 10.3095 4.67639C9.32336 5.05504 8.66791 5.98021 8.64998 7.01877C8.6486 7.21684 8.67276 7.41428 8.72187 7.6064C6.8046 7.51566 4.99816 6.69821 3.68345 5.3264C3.60721 5.24332 3.49203 5.20572 3.38023 5.22741C3.26844 5.2491 3.17653 5.32688 3.13827 5.43217C2.76765 6.51572 3.18846 7.70814 4.16273 8.33506C3.83663 8.33233 3.51453 8.26435 3.21615 8.13527C3.16606 8.11461 3.10862 8.12104 3.06457 8.15225C3.02052 8.18345 2.99623 8.23492 3.00048 8.28805C3.12004 9.39568 3.95549 10.3006 5.06737 10.5269C4.77202 10.6114 4.46285 10.6394 4.15674 10.6092C4.10257 10.605 4.0501 10.6288 4.01828 10.6721C3.98647 10.7153 3.97991 10.7716 4.00097 10.8207C4.41803 11.7202 5.32426 12.3052 6.33147 12.3251C5.44992 12.9921 4.37685 13.3704 3.26408 13.4063C3.17805 13.4063 3.10832 13.4747 3.10832 13.5591V13.6237C3.10811 13.6823 3.14342 13.7354 3.19818 13.7589C4.21369 14.2496 5.33123 14.503 6.46327 14.4993C8.4214 14.5261 10.3086 13.781 11.7017 12.4311C13.0949 11.0811 13.8775 9.2393 13.8741 7.31846V6.99527Z" fill="#9F9E9E"/>
</g>
<defs>
<clipPath id="clip0_705_33758">
<rect y="0.5" width="18" height="18" rx="3" fill="white"/>
</clipPath>
</defs>
</svg>
