<svg width="26" height="27" viewBox="0 0 26 27" fill="none" xmlns="http://www.w3.org/2000/svg">
<path d="M24.0554 7.90492C23.4456 6.55738 22.5702 5.34754 21.4587 4.30492C20.3473 3.27213 19.0587 2.45574 17.6227 1.88525C16.1374 1.29508 14.5636 1 12.9407 1C11.3177 1 9.74397 1.29508 8.25872 1.88525C6.82265 2.45574 5.53413 3.26229 4.42265 4.30492C3.31118 5.34754 2.43578 6.55738 1.82594 7.90492C1.19644 9.30164 0.871826 10.7967 0.871826 12.3311C0.871826 15.0164 1.87509 17.5934 3.71444 19.6393L2.73083 25L7.96364 22.6689C9.52757 23.3377 11.1899 23.6721 12.9309 23.6721C14.5538 23.6721 16.1276 23.377 17.6128 22.7869C19.0489 22.2164 20.3374 21.4098 21.4489 20.3672C22.5604 19.3246 23.4358 18.1148 24.0456 16.7672C24.6751 15.3705 24.9997 13.8754 24.9997 12.341C25.0096 10.7967 24.685 9.31148 24.0554 7.90492Z" stroke="#9F9E9E" stroke-width="1.5"/>
<path d="M17.8389 14.5925C17.3274 14.3367 16.9537 14.1793 16.6881 14.081C16.5209 14.022 16.1275 13.8449 15.9898 13.9531C15.557 14.3072 15.0947 15.3105 14.6029 15.4974C13.3832 15.2613 12.2521 14.4252 11.3668 13.5695C10.9734 13.1957 10.2455 12.1334 10.0881 11.8482C10.0586 11.5531 10.5897 11.1597 10.7078 10.9334C11.3176 10.2449 10.8553 9.81213 10.7766 9.52688C10.6389 9.2318 10.4029 8.70065 10.1963 8.26786C10.0193 7.98262 9.97989 7.55967 9.66514 7.40229C8.32743 6.71377 7.56026 8.09082 7.2455 8.80885C5.34714 13.3826 16.757 22.0875 19.0783 16.0875C19.1963 15.5662 19.1471 15.3695 18.9701 15.1334C18.616 14.8875 18.2029 14.7793 17.8389 14.5925Z" stroke="#9F9E9E" stroke-width="1.5"/>
</svg>
